<svg height="511pt" viewBox="0 -10 511.98645 511" width="511pt" xmlns="http://www.w3.org/2000/svg"><path d="m499.574219 188.503906c-3.199219-9.921875-11.988281-16.9375-22.398438-17.898437l-141.355469-12.84375-55.894531-130.835938c-4.117187-9.578125-13.503906-15.765625-23.933593-15.765625-10.433594 0-19.820313 6.207032-23.9375 15.808594l-55.890626 130.816406-141.378906 12.839844c-10.386718.941406-19.175781 7.957031-22.378906 17.878906-3.21875 9.921875-.234375 20.777344 7.617188 27.648438l106.859374 93.695312-31.511718 138.773438c-2.300782 10.199218 1.664062 20.734375 10.136718 26.878906 4.519532 3.328125 9.875 4.992188 15.230469 4.992188 4.628907 0 9.238281-1.234376 13.355469-3.710938l121.898438-72.894531 121.875 72.875c8.917968 5.351562 20.160156 4.882812 28.609374-1.238281 8.46875-6.144532 12.4375-16.683594 10.132813-26.882813l-31.507813-138.769531 106.859376-93.699219c7.847656-6.867187 10.835937-17.726563 7.613281-27.667969zm0 0" fill="green"/></svg>
