<?xml version="1.0" encoding="utf-8"?>
<!-- Generator: Adobe Illustrator 24.1.2, SVG Export Plug-In . SVG Version: 6.00 Build 0)  -->
<svg version="1.1" xmlns="http://www.w3.org/2000/svg" xmlns:xlink="http://www.w3.org/1999/xlink" x="0px" y="0px"
	 viewBox="0 0 3000 1457.88" style="enable-background:new 0 0 3000 1457.88;" xml:space="preserve">
<style type="text/css">
	.st0{display:none;}
	.st1{fill:#FFFFFF;}
	.st2{fill-rule:evenodd;clip-rule:evenodd;fill:#313231;}
	.st3{fill:#313231;}
	.st4{fill:none;stroke:#1D1D1B;stroke-width:6;}
</style>
<g id="background" class="st0">
</g>
<g id="Layer_2">
	<g>
		<path class="st1" d="M2786.54,692.62c-151.84,27.69-304.38,50.41-457.37,68.21l-0.67-12.27c-6.36-0.87-12.79-9.7-15.53-14.98
			c-30.1-45.82-76.67-87.24-126.86-125.14l-9.14-7.05l-10.92-7.94c0,0-0.94,0-0.94-0.87c-73.92-53.77-150.59-102.24-189.86-148.94
			c-40.15-49.34-89.43-87.24-129.6-144.53c-2.75-4.4-1.84-1.76-1.84-4.4c-7.3,0-12.76,2.63-18.25,5.28
			c-8.23,4.41-14.6,15.87-20.09,23.79c-2.75,4.41-4.55,6.17-10.04,9.7c-6.36-2.63-187.12-223.83-254.65-289.05
			c-37.43-36.13-38.37-6.17-76.67,29.96c-62.07,103.98-141.48,197.39-229.13,283.76c-5.46,6.18-8.2,8.81-13.66,12.33
			c-7.3,5.28-21.93,23.81-39.27,37.9c-63.91,52.88-58.42-18.5-81.25-27.31c-41.05,11.46-197.13,168.32-302.12,276.71
			c0.94,0,2.75,0.87,5.49,3.52c-3.65,0.87-5.49,1.76-7.3,1.76c-0.94,0-0.94-0.89-1.81-1.76c-48.41,49.34-84.9,87.24-94.01,96.05
			c0.87,1.76,0.87,2.65,0.87,4.41c-0.87,0.89-1.81,1.76-3.62,1.76c-0.93,0-1.84,0-2.74-0.87c-0.43,0.32-0.86,0.63-1.29,0.95
			c-160.95-18.19-321.35-41.86-480.84-71l-5.46-0.87v39.66v655.96v38.77c426.26-75.78,858.92-113.68,1291.58-113.68
			c432.66,0,865.29,37.9,1292.49,113.68V691.75L2786.54,692.62z M2265.53,679.83c0.9,0,5.46,4.41,4.59,5.28
			c-1.84,1.76-3.68,1.76-7.33,2.65c0-0.89-0.9-1.76-0.9-2.65C2260.94,682.46,2261.88,680.7,2265.53,679.83z M2209.85,645.45
			c1.81,0,3.65,0,5.49,0.89l0.91,0.87c-1.84,0.89-2.75,1.76-4.58,1.76c-0.91,0-2.75-0.87-3.62-0.87
			C2208.91,647.21,2208.91,645.45,2209.85,645.45z M2151.43,600.51c2.74-0.87,4.58,0.89,4.58,3.52c0,1.76-1.84,2.65-2.74,6.17
			c-1.84-3.52-3.68-5.28-4.55-7.04C2148.71,602.27,2150.52,600.51,2151.43,600.51z M2134.08,590.81c0.9,0,2.74,0.89,3.65,0.89
			c-0.9,0.89-0.9,1.76-1.81,2.65c-1.84-0.89-2.74-0.89-3.68-1.76C2133.18,592.59,2134.08,590.81,2134.08,590.81z M2099.4,582
			c0.9,0,0.9-0.87,1.84-0.87c0,0.87,0,2.63,0,3.52l-4.59-2.65C2097.56,582,2098.49,582,2099.4,582z M2082.96,543.23
			c0.93,0,1.84,0.87,3.68,2.65c-1.84,0.87-2.75,1.76-3.68,1.76c-0.9,0-1.81-0.89-1.81-1.76
			C2081.15,544.99,2082.06,543.23,2082.96,543.23z M1900.43,408.4c1.81,0,3.62,0.89,5.46,1.76c-0.91,0.89-2.71,0.89-4.55,1.76
			c0-0.87-0.91-1.76-1.84-2.63L1900.43,408.4z M1840.17,394.31c-2.75-2.65-2.75-0.89-2.75-4.41L1840.17,394.31z M1754.39,322.92
			c0,0.87,1.81,1.76,1.81,3.52c0,0.87-0.94,1.76-1.81,2.63c-1.84-1.76-2.74-2.63-2.74-3.52
			C1751.64,324.68,1753.45,323.8,1754.39,322.92z M1718.77,263.87c0-0.87,0.94-0.87,2.75-1.76c1.81,0.89,3.65,2.65,5.49,4.41
			c0,0.87,0,2.65-0.94,3.52c-0.9,0-1.81,0-2.74,0c-1.81-1.76-2.75-2.65-4.55-4.41V263.87z M1565.43,100.85c0,0,0-0.89,0.9-2.65
			c0,0.87,0.9,1.76,1.84,2.65c0.9,0.87,0.9,1.76,1.81,2.63c0,0.89,0,2.65-0.9,3.52c0,0-1.84,0.89-1.84,0c-0.9,0-1.81-0.87-1.81-1.76
			C1565.43,104.37,1565.43,102.61,1565.43,100.85z M1519.77,377.56l4.59,2.63l-10.95-6.17
			C1524.35,376.67,1514.31,374.91,1519.77,377.56z M1508.85,57.67c0,0.87,0.9,1.76,0.9,2.63c-0.9,0-1.84,0.89-2.75,0.89
			c-0.9-0.89-0.9-0.89-0.9-2.65C1507.01,58.54,1507.91,57.67,1508.85,57.67z M1503.36,79.7c1.81,0,2.75,0.87,3.65,1.76
			c-0.9,0.87-2.75,1.76-3.65,2.64c-0.94,0-1.81-0.87-3.65-1.76C1501.55,80.57,1502.42,79.7,1503.36,79.7z M1495.12,277.09
			c0-0.87,0-2.63,0-4.4c0.94-0.89,1.84-1.76,2.74-2.65c0.94,0,2.74,0.89,2.74,1.76c1.81,1.76,3.65,4.41,4.55,7.05
			c0.94,1.76,0.94,3.52,1.84,6.17c-2.75,0-6.39,1.76-9.14,0.89c-0.9,0-1.81-3.54-2.74-5.3
			C1494.25,279.74,1495.12,278.85,1495.12,277.09z M1476.91,364.35c0.87,0,1.81,0.87,5.46,1.76c-2.74,0.87-3.65,1.76-4.58,1.76
			c-0.87,0-1.81-0.89-2.71-0.89C1475.07,366.11,1475.97,364.35,1476.91,364.35z M1457.69,97.31c0,0,2.75-0.87,3.68,0
			c2.74,1.76,4.55,3.54,7.3,6.17l-0.94,1.76c-4.55-0.87-7.3,1.76-10.04,4.41c0,0-0.87,0-1.81,0c0-0.89-0.91-1.76-0.91-2.65
			C1455.89,104.37,1456.82,100.85,1457.69,97.31z M1425.75,218.05c0.94,0.87,1.84,1.76,1.84,3.52c0,0-0.9,1.76-1.84,3.52
			c-0.87-2.65-1.81-3.52-1.81-4.41C1423.95,219.81,1424.88,218.93,1425.75,218.05z M1403.86,308.81c0.94,0,0.94,0.89,3.68,3.52
			c-2.74,0-4.59,0-5.49-0.87c-0.94,0-0.94-0.89-1.84-1.76C1402.05,308.81,1402.95,308.81,1403.86,308.81z M1371.92,280.61
			c0-2.64,3.65-6.16,7.3-6.16c0.93,0.87,1.81,1.76,2.74,2.63c0,0.89,0,1.76-0.94,2.65c0,0.87-0.87,0.87-1.81,1.76
			c-1.81,0.87-3.65,3.52-7.3,0.87C1371.92,282.38,1370.98,281.5,1371.92,280.61z M1353.64,251.54c0-1.76,0.94-2.65,0.94-2.65
			c2.75,0,4.55,0,6.39,0.89c1.84,0,1.84,0.87,2.71,0.87c-0.87,0.89-1.81,0.89-2.71,0.89c-0.9,0-1.84,0-2.75,0.87
			c-1.84,0-2.75,0-3.65,0C1353.64,252.41,1352.77,251.54,1353.64,251.54z M1294.31,326.45c2.74,1.76,6.43,2.63,9.14,4.41
			c0.9,0,0.9,2.63,0,2.63c-1.84,0.89-4.55,2.65-7.3,1.76c-2.71-0.87-3.65-3.52-3.65-7.05
			C1292.5,328.21,1293.44,327.32,1294.31,326.45z M1291.6,370.5c0.9,0.89,1.84,0.89,1.84,0.89c1.81,2.63,2.71,5.28,3.62,7.93
			c-0.9,0.87-1.81,1.76-2.74,0.87c-2.71,0-4.55-4.41-4.55-7.93C1290.7,371.39,1291.6,371.39,1291.6,370.5z M1236.83,426.91
			c0,0,0.91,0,1.84-0.87c1.81,1.76,3.62,3.52,5.46,5.29c0,0-0.9,0.87-1.84,1.76c-1.81-0.89-3.62-2.65-6.36-4.41
			C1235.92,428.67,1236.83,427.79,1236.83,426.91z M1224.07,535.3c0.87-0.87,1.81-1.76,3.62-2.63c0,0.87,0,0.87,0,1.76
			c-0.9,0.87-2.74,1.76-4.55,2.63C1223.13,536.19,1223.13,535.3,1224.07,535.3z M1219.48,399.59c0.9,0,1.84,1.76,2.71,2.63
			c-0.87,1.76-1.81,2.65-2.71,2.65c-3.65,0.87-7.3-0.89-8.2-4.41c0-0.87,0-2.63,0-3.52c0.9,0.89,2.75,0.89,2.75,1.76
			C1215.83,401.35,1217.64,398.7,1219.48,399.59z M1214.03,451.58c-0.94-0.89,0-1.76-0.94-2.65c1.81,0,2.75-0.87,3.65,0
			c1.84,1.76,2.75,4.41,4.59,6.17c-0.94,0.89-0.94,1.76-1.84,2.65c0-0.89-1.84-0.89-1.84-1.76
			C1218.58,452.46,1214.9,453.34,1214.03,451.58z M1213.09,381.96c0.94,0,1.81,1.76,2.75,1.76c-0.94,0.89-0.94,1.76-1.81,2.65
			c-0.94-0.89-1.84-1.76-3.68-2.65C1211.28,383.72,1212.18,381.96,1213.09,381.96z M1152.83,484.2c1.84,0.87,5.49,1.76,5.49,3.52
			c0,3.52-2.74,1.76-5.49,0.87h-0.87c-2.74-0.87-7.3,3.52-7.3-2.64C1145.53,483.31,1150.11,484.2,1152.83,484.2z M1068.86,426.91
			h0.94c2.74,0.89,5.49,1.76,8.2,3.52v0.89c-3.65-0.89-7.3-0.89-10.04-1.76c-0.91,0-0.91-0.89-0.91-1.76
			C1067.05,426.91,1067.96,426.91,1068.86,426.91z M1050.61,442.77c0.9,0,1.84,0,4.59,0c0,0,0.9,0,1.81,0
			c-0.9,0.87-1.81,1.76-2.75,2.63c-0.9,0-1.81,0-3.65,0c-0.9,0-0.9-0.87-1.84-1.76C1048.77,443.65,1049.71,442.77,1050.61,442.77z
			 M949.3,542.34c2.71-0.87,6.39,0,10.04,0c-0.9,0.89-0.9,2.65-0.9,2.65c-2.75,1.76-5.49,3.52-8.23,5.28c-0.9,0-1.81,0.89-2.75,1.76
			c-0.9-0.87-0.9-1.76-1.81-4.39C946.56,545.88,947.46,542.34,949.3,542.34z M891.82,633.12c1.81,0,3.62,0,5.46,0.87
			c-0.9,0.89-0.9,1.76-1.84,1.76c-0.91-0.87-2.74-1.76-4.55-2.63C891.82,633.12,891.82,632.23,891.82,633.12z M876.28,643.69
			c0.9,0,2.74,0.89,5.49,0.89c-1.84,1.76-2.75,2.63-3.68,2.63c-0.9,0-2.74-0.87-3.62-0.87
			C875.35,645.45,875.35,644.58,876.28,643.69z M834.3,643.69c1.81-0.87,3.65-1.76,5.49-1.76c0.87,0,1.81,0.89,1.81,0.89
			s0.9,0.87,0,0.87c-1.81,1.76-3.65,3.52-5.49,6.17c-1.81-1.76-3.65-2.65-3.65-3.52C831.55,645.45,833.36,643.69,834.3,643.69z"/>
		<g>
			<path class="st2" d="M1234.82,362.28c-5.46,6.18-8.2,8.81-13.66,12.33c-7.3,5.28-21.93,23.8-39.27,37.9
				c-63.91,52.88-58.42-18.5-81.25-27.31c-41.05,11.46-197.13,168.32-302.12,276.71l0,0c0.94,0,2.75,0.87,5.49,3.52
				c-3.65,0.87-5.49,1.76-7.3,1.76c-0.94,0-0.94-0.89-1.81-1.76c-48.41,49.34-84.9,87.24-94.01,96.05c0.87,1.76,0.87,2.65,0.87,4.41
				c-0.87,0.89-1.81,1.76-3.62,1.76c-0.94,0-1.84,0-2.74-0.87c-11.85,8.81-26.48,16.74-26.48,27.31c0.9,0,2.75,0.87,3.65,0.87l0,0
				c0-0.87,0.94-0.87,1.81-0.87c0.93,0,1.84,0,2.75,0c0.93,0,1.84-0.89,2.74-0.89c0,0.89,0.94,0.89,1.81,1.76
				c16.47-3.52,41.11-22.03,52.03-31.72l-0.87-0.87c0-0.89,0.87-1.76,0.87-1.76c0.94,0,1.87,0,2.75,0c0.94-1.76,2.75-2.65,2.75-3.52
				c10.04-14.11,67.56-61.69,84.9-65.21c-2.74,8.81-1.81,18.51,0,29.07c5.49,19.4-8.23,28.2,6.36,25.55
				c16.47-2.63,9.17-7.92,21.93-32.6c8.21-14.98,78.51-109.28,79.41-111.04c4.58-7.05,21.93,39.66,26.48,31.72L948.24,587
				c3.62,5.28,10.95-2.65,16.41-7.06c3.68-3.52,10.04-11.44,13.72-14.97c29.2-32.61,51.09-50.25,83.97-75.8
				c3.62-4.41,4.55-3.52,10.04-5.28v1.76l0,0c0.9,0,1.81,0,2.74,0.87c0.87,0,0.87,0.89,1.81,1.78c0,0.87-0.94,1.76-1.81,1.76
				c-0.93,0.87-1.84,0.87-2.74,0.87c-0.94,10.57-2.74,18.5-0.94,33.49c7.3,15.87,8.23-1.76,6.39,37.01c0,7.06-0.9,15.87-0.9,22.92
				c0,8.81,0,30.85,11.85,17.63c17.34-17.63,8.23-9.7,22.83-30.85c20.09-27.31,56.58-74.02,79.41-99.59
				c3.65-4.4,12.79-15.86,14.6-22.03c4.55-2.63,1.81-2.63,8.23-5.28c-3.68,20.27-10.04,37.01-15.53,54.64
				c-10.98,34.36-41.98,89.89-46.54,116.33l9.11,7.04c-4.55,18.51-4.55,10.57-5.49,9.7c-1.81-0.89-2.74-1.76-3.62-1.76
				c-5.49,12.33-12.79,23.79-11.89,40.53h4.59c1.81,14.09-2.75,6.17,5.46,8.81c0.9-2.63,1.84-6.16,2.71-8.81
				c-0.87,0-1.81-0.89-1.81-0.89c-0.9-3.52-0.9-7.92-0.9-11.44c0-1.78,1.84-3.54,2.71-5.3c1.84-2.63,2.74-0.87,4.59,0
				c0.9,0.89,0.9,0.89,1.84,1.76c0-1.76,0.9-3.52,0.9-5.28l-2.74-1.76c0-0.87,0.9-1.76,0.9-1.76c0.94,0,1.84,0.89,2.74,0.89
				c3.65-8.82,10.04-18.51,14.6-24.68c4.55-4.41,3.68-3.52,11.85-5.28c5.49-32.61,67.56-117.22,85.84-142.77
				c6.36-8.81,11.85-16.74,18.25-25.55c7.3-8.82,10.95-18.5,18.25-27.33l1.81,7.06v0.87c1.84-0.87,3.68-0.87,5.49-0.87
				c1.81,0,2.75,1.76,3.65,2.64c0,0.89,0,1.76-0.9,1.76c-1.81,0.89-3.65,0.89-5.49,1.76c-0.9,0.89-2.74,2.65-3.62,1.76
				c-2.75,12.35-9.17,29.96-11.88,37.9c-4.59,11.46-15.5,37.9-16.44,49.35l2.75,0.87c0,14.11-14.6,44.07,0,43.18
				c9.11-0.87,15.53-19.39,17.34-26.44c17.34-0.87,32.88-24.68,47.47-37.01c21.9-18.51,22.8-34.38,49.28-33.49l-1.81,23.79
				c-8.24,53.75-32.88,139.25-31.07,185.95l4.55-7.93c4.59-7.94,1.84-1.76,8.23-6.17c5.49-4.4,4.55-12.33,10.04-18.5
				c4.55-4.4,3.65-1.76,6.39-7.93c1.84-2.63,2.71-6.16,4.55-8.81c20.99-37.9,41.08-68.73,59.36-110.16
				c2.71-5.28,0.87-3.52,4.55-6.17c0-7.05,32.84-76.67,40.14-89.89c12.79-23.79,16.44-10.57,20.09-40.53l-4.59-2.63
				c-5.46-2.65,4.59-0.89-6.36-3.54c-3.65,7.93-9.14,15.87-15.53,19.39c-0.9,3.52-0.9,4.41-2.75,7.93
				c-2.71,0.87-9.11,3.52-10.04,6.17c-8.17,0.87-4.55,0.87-7.3-0.89c1.84-10.57,10.98-29.96,15.53-39.66
				c6.39-15.86,23.73-89.89,25.58-106.63c0.87-7.05-1.84-19.38-7.3-20.27l-6.43-0.87c-14.6,1.76-49.28,22.9-58.39,30.84l-25.58,2.65
				c0.94,2.63,1.81,4.4,2.75,7.05c0,0.87-0.94,2.64-1.81,2.64c-1.84,0-3.68,0-6.43,0c0,0-0.87,0-2.71-0.87
				c0.91-0.89,1.84-3.52,2.71-3.52c6.43-1.76,1.84-4.41,0.94-7.04c-0.94,0,0-0.89,0-1.76c0.91,0,2.75,0,2.75,0l0.9,0.87
				c4.59-22.92,55.68-98.7,71.21-133.07c0,0-0.94,0-0.94-0.87c-0.9-1.76-1.81-4.41-2.74-7.06l0.93-0.87c0.91,0,1.81,0,1.81,0.87
				c0.94,1.78,1.84,3.54,1.84,5.3c3.65-7.06,4.55-12.35,3.65-14.11c0-0.87,0.9-1.76,0.9-1.76c0.9,0.89,1.84-0.87,1.84-0.87
				c7.3-5.3,5.46-4.41,11.85-5.3c1.81-7.05,2.74-6.16,4.55-12.33c5.49,2.65,15.53,12.33,18.28,17.63
				c9.11,19.38,47.47,55.51,48.35,57.27c3.68,1.76,42.92,31.72,47.47,35.25c12.79,11.46,45.66,51.12,73.05,83.72l0,0
				c1.81,0,3.62,0.89,5.46,0.89v0.87c-1.84,0.89-3.65,0.89-3.65,0.89l0,0c20.99,24.68,37.43,45.82,40.17,46.71
				c0.9,7.05,17.34,20.27,19.15,24.68l-12.79,14.98c-2.74,2.64-1.81,1.76-5.46,4.4c-10.95,19.39-125.98,138.36-142.39,154.23
				c-41.99,38.77-38.37,51.12-43.82,57.28c-10.04,10.58-20.09,19.39-28.29,32.61c-36.49,51.99-79.41,83.72-122.33,126.01
				c-7.3,7.06-4.55,6.17-7.3,16.74c2.75,1.78,3.68,1.78,5.49,2.65c2.75-1.76,10.95-8.81,14.6-11.46
				c65.72-49.34,120.49-98.7,182.56-146.29c6.39-3.52,8.2-5.29,13.69-11.44c5.49-6.17,10.95-7.93,18.25-3.54
				c-2.71,9.7,3.65,4.41-7.3,25.57c-2.74,6.16-10.04,14.09-8.2,22.9l13.66,0.89c0,8.81-1.81,26.44-8.2,30.85
				c-0.91,4.4-1.84,8.81,0.9,13.21c9.14,0,6.43-1.76,11.88-6.16c5.46-4.41,5.46-1.76,11.88-4.41c3.62-7.04,2.71-9.7,6.36-15.85
				c15.53-25.57,19.15-14.98,34.68-29.09c9.14-7.05,30.13-36.14,37.43-37.9c4.55,2.65,2.74-0.87,3.65,8.82
				c8.2-0.89,4.58-4.41,10.04,0.87c20.09,20.27-14.6,109.28-6.39,146.29c-3.65,5.28-2.75,6.17-0.9,13.22c8.2-0.89,4.55,0,10.95-6.17
				c1.81-2.64,6.39-6.16,7.3-7.94c1.81-3.52,100.41-146.28,100.41-148.04c1.84-14.11-1.84-22.92,2.74-37.9
				c2.72-12.33,4.55-37.01,6.39-51.12c0-7.05,1.81-8.81,3.65-16.74c-14.63-6.17-14.63,2.65-31.04,2.65
				c-10.98,17.62-12.79,6.16-30.13,16.74c-5.49,3.52-41.05,19.38-31.94-0.89l20.99-46.71c15.5-29.96-4.58-7.92,18.25-58.16
				c10.04-22.9,7.3-32.6,24.64-29.08c0,3.52,0,1.76,2.75,4.41c4.55,7.92,1.81,4.4,13.69,10.57l11.88,10.57l34.68,22.03
				c14.6,6.17,49.28,32.61,59.33,37.9c7.3,4.41,15.5,7.05,17.34,14.11c-30.13,1.76-11.85-7.06-33.78-7.06
				c-10.95,0-34.69,0.89-41.08,4.41c1.81,15.87,11.85,0,25.58,18.5c13.66,17.63,26.45,12.35,43.79,22.03
				c4.55,1.76,9.14,5.3,16.44,4.41c9.14,0,7.3-3.52,20.06-0.87c22.83,6.16,4.59,12.33,40.17,26.43
				c16.44,7.06,31.94,15.87,47.47,23.8c-1.81-0.89-2.75-2.65-1.81-4.41c0-1.76,1.81-2.65,1.81-3.52c4.55-0.89,8.23,1.76,7.3,5.28
				l6.4,4.41c-2.75,0.87-3.65,2.63-5.46,2.63c56.58,31.72,110.42,69.62,157.89,111.92c20.09,17.63,9.11,9.7,25.58,19.39
				c8.17,5.28,15.5,18.51,22.8,29.09c0.9,0,1.84,0.87,1.84,0.87c0.87,0.89,0.87,1.76,1.81,2.65c4.55,7.04,10.95,12.33,16.41,12.33
				l-1.81-13.22c-6.36-0.87-12.79-9.7-15.53-14.98c-30.1-45.82-76.67-87.24-126.86-125.14v1.76c0,2.65,0,4.41,0,7.05
				c0,0.89-1.84,1.76-2.72,1.76c-0.94,0-1.87-0.87-1.87-1.76c-0.87-6.16-1.81-11.46-4.55-15.85l-10.92-7.94c0,0-0.94,0-0.94-0.87
				c-73.92-53.77-150.59-102.24-189.86-148.94c-40.15-49.34-89.43-87.24-129.6-144.53c-2.75-4.4-1.84-1.76-1.84-4.4
				c-7.3,0-12.76,2.63-18.25,5.28c-8.23,4.41-14.6,15.87-20.09,23.79c-2.75,4.41-4.55,6.17-10.04,9.7
				c-6.36-2.63-187.12-223.83-254.65-289.05c-37.43-36.13-38.37-6.17-76.67,29.96C1401.89,182.5,1322.47,275.91,1234.82,362.28
				L1234.82,362.28z M2096.49,586.11l4.59,2.65c0-0.89,0-2.65,0-3.52l0,0c-0.94,0-0.94,0.87-1.84,0.87S2097.4,586.11,2096.49,586.11
				L2096.49,586.11z M918.1,579.94c0.9,0.89,0.9,1.78,1.81,1.78c-0.91,0.87-1.81,1.76-2.75,2.63c-0.87,0-1.81-0.87-1.81-0.87
				C916.3,581.72,917.17,580.83,918.1,579.94L918.1,579.94z M1227.52,538.53c-0.9,0.87-2.75,1.76-4.55,2.63l0,0
				c0-0.87,0-1.76,0.94-1.76c0.87-0.87,1.81-1.76,3.62-2.63C1227.52,537.65,1227.52,537.65,1227.52,538.53L1227.52,538.53z
				 M1450.23,472.43c-0.87-1.76-1.81-2.65-1.81-2.65c0-0.87,0.93-1.76,1.81-2.63c0.93,0.87,1.84,1.76,1.84,2.63
				C1452.07,469.78,1451.17,470.67,1450.23,472.43L1450.23,472.43z M1505.94,62.65c0.9,0,1.81-0.87,2.74-0.87
				c0,0.87,0.9,1.76,0.9,2.63c-0.9,0-1.84,0.89-2.75,0.89C1505.94,64.41,1505.94,64.41,1505.94,62.65L1505.94,62.65z
				 M1082.42,576.42c4.55,0,8.2,2.65,7.3,5.3l6.36,4.4c-2.74,1.76-3.62,3.52-5.46,3.52c-2.75,0-3.65-1.76-2.75-4.4c0,0,0,0,0-0.89
				c-0.9,0.89-0.9,0.89-1.84,1.76c-2.75,0.89-6.36-2.63-5.46-5.28C1080.58,579.07,1082.42,577.3,1082.42,576.42L1082.42,576.42z
				 M1172.75,614.31c0,1.76,0,4.41,0,7.05c0,0-1.81,1.76-2.75,1.76c-0.87,0-1.81-1.76-1.81-2.64c-0.91-5.28-1.81-11.46-5.49-15.87
				c0-1.76,0.94-3.52,1.84-4.4c0.9-0.89,2.74-0.89,3.65,0c3.68,1.76,6.39,4.4,5.49,7.92
				C1173.69,609.9,1172.75,612.55,1172.75,614.31L1172.75,614.31z M1407.38,316.45c-2.74,0-4.59,0-5.49-0.87
				c-0.94,0-0.94-0.89-1.84-1.76c1.84-0.89,2.74-0.89,3.65-0.89C1404.63,312.92,1404.63,313.81,1407.38,316.45L1407.38,316.45z
				 M1482.2,370.22c-2.74,0.87-3.65,1.76-4.58,1.76c-0.87,0-1.81-0.89-2.71-0.89c0-0.87,0.9-2.63,1.84-2.63
				C1477.62,368.45,1478.55,369.33,1482.2,370.22L1482.2,370.22z M1425.59,229.21c-0.87-2.65-1.81-3.53-1.81-4.41
				c0-0.87,0.94-1.76,1.81-2.64c0.94,0.87,1.84,1.76,1.84,3.52C1427.43,225.68,1426.53,227.45,1425.59,229.21L1425.59,229.21z
				 M1414.67,567.61c-1.84,0-2.75,0.89-2.75,0.89c-0.94-0.89-1.84-1.76-2.75-3.52c0.91,0,0.91-0.89,1.81-0.89
				C1411.93,564.97,1412.83,565.85,1414.67,567.61L1414.67,567.61z M881.61,648.69c-1.84,1.76-2.75,2.63-3.68,2.63
				c-0.9,0-2.74-0.87-3.62-0.87c0.87-0.89,0.87-1.76,1.81-2.65C877.03,647.8,878.87,648.69,881.61,648.69L881.61,648.69z
				 M1215.67,387.83c-0.94,0.89-0.94,1.76-1.81,2.65c-0.94-0.89-1.84-1.76-3.68-2.65c0.93,0,1.84-1.76,2.74-1.76
				C1213.86,386.07,1214.74,387.83,1215.67,387.83L1215.67,387.83z M1373.56,400.18c0,1.76-0.9,2.63-0.9,3.52
				c0-0.89-0.91-1.76-0.91-3.52c-0.94-0.89,0-2.65,0.91-3.52C1372.66,397.53,1373.56,399.29,1373.56,400.18L1373.56,400.18z
				 M1434.73,478.61c-0.9-1.76-1.84-2.65-1.84-3.52c0-0.89,1.84-1.76,2.75-2.65c0,0.89,0.94,1.76,0.94,2.65
				C1436.57,475.96,1435.63,476.85,1434.73,478.61L1434.73,478.61z M897.11,638.1c-0.9,0.89-0.9,1.76-1.84,1.76
				c-0.91-0.87-2.75-1.76-4.55-2.63c0.93,0,0.93-0.89,0.93,0C893.46,637.23,895.27,637.23,897.11,638.1L897.11,638.1z
				 M1458.47,518.25c-1.81,0.89-2.75,1.78-3.65,1.78c-0.9-0.89-1.84-2.65-1.84-3.54c-0.9-0.87,0-1.76,0.94-2.63
				C1454.82,514.73,1456.66,516.49,1458.47,518.25L1458.47,518.25z M1499.55,86.44c1.84-1.76,2.71-2.64,3.65-2.64
				c1.81,0,2.75,0.87,3.65,1.76c-0.9,0.87-2.75,1.76-3.65,2.64C1502.26,88.2,1501.39,87.33,1499.55,86.44L1499.55,86.44z
				 M1055.04,446.88c0,0,0.9,0,1.81,0c-0.9,0.87-1.81,1.76-2.75,2.63c-0.9,0-1.81,0-3.65,0c-0.9,0-0.9-0.87-1.84-1.76
				c0,0,0.94-0.87,1.84-0.87C1051.35,446.88,1052.29,446.88,1055.04,446.88L1055.04,446.88z M1068.7,431.01h0.94
				c2.74,0.89,5.49,1.76,8.2,3.52v0.89c-3.65-0.89-7.3-0.89-10.04-1.76c-0.91,0-0.91-0.89-0.91-1.76
				C1066.89,431.01,1067.79,431.01,1068.7,431.01L1068.7,431.01z M1180.05,588.76c-2.71,0-3.62,0-4.55,0
				c-0.91,0-0.91-0.89-1.81-1.76c0.9,0,0.9-0.89,1.81-0.89c0.93-0.87,1.84-0.87,2.74-1.76c2.75-0.87,4.55-1.76,6.39,0.89
				c0,0.87,0,1.76,0,1.76C1182.8,587.87,1180.99,588.76,1180.05,588.76L1180.05,588.76z M1238.5,430.14
				c1.81,1.76,3.62,3.52,5.46,5.29c0,0-0.9,0.87-1.84,1.76c-1.81-0.89-3.62-2.65-6.36-4.41c0,0,0.9-0.87,0.9-1.76
				C1236.66,431.01,1237.57,431.01,1238.5,430.14L1238.5,430.14z M1413.74,768.54c-0.91-1.76-1.81-2.65-2.75-4.41
				c0-0.89,1.84-2.65,1.84-2.65c1.84,0.89,4.56,2.65,6.4,3.54c0,0-0.94,1.76-0.94,2.64
				C1417.39,767.65,1415.55,767.65,1413.74,768.54L1413.74,768.54z M1358.06,256.52c-1.84,0-2.75,0-3.65,0
				c-0.94,0-1.81-0.87-0.94-0.87c0-1.76,0.94-2.65,0.94-2.65c2.75,0,4.55,0,6.39,0.89c1.84,0,1.84,0.87,2.71,0.87
				c-0.87,0.89-1.81,0.89-2.71,0.89C1359.9,255.65,1358.97,255.65,1358.06,256.52L1358.06,256.52L1358.06,256.52z M1221.16,459.21
				c-0.94,0.89-0.94,1.76-1.84,2.65c0-0.89-1.84-0.89-1.84-1.76c0.94-3.54-2.74-2.65-3.62-4.41c-0.94-0.89,0-1.76-0.94-2.65
				c1.81,0,2.75-0.87,3.65,0C1218.42,454.8,1219.32,457.45,1221.16,459.21L1221.16,459.21z M1458.47,463.63
				c-1.81-0.89-3.65-1.76-5.49-2.65v-1.76c1.84,0,4.55-0.87,6.42-0.87c1.81,0.87,4.55,1.76,6.36,2.64
				C1463.02,461.86,1461.21,462.74,1458.47,463.63L1458.47,463.63z M835.95,653.97c-1.81-1.76-3.65-2.65-3.65-3.52
				c-0.9-0.89,0.9-2.65,1.84-2.65c1.81-0.87,3.65-1.76,5.49-1.76c0.87,0,1.81,0.89,1.81,0.89s0.9,0.87,0,0.87
				C839.63,649.56,837.79,651.32,835.95,653.97L835.95,653.97z M1291.44,374.61c0.9,0.89,1.84,0.89,1.84,0.89
				c1.81,2.63,2.71,5.28,3.62,7.93c-0.9,0.87-1.81,1.76-2.74,0.87c-2.71,0-4.55-4.41-4.55-7.93
				C1290.53,375.5,1291.44,375.5,1291.44,374.61L1291.44,374.61z M1222.03,406.33c-0.87,1.76-1.81,2.65-2.71,2.65
				c-3.65,0.87-7.3-0.89-8.2-4.41c0-0.87,0-2.63,0-3.52c0.9,0.89,2.75,0.89,2.75,1.76c1.81,2.65,3.62,0,5.46,0.89
				C1220.23,403.7,1221.16,405.46,1222.03,406.33L1222.03,406.33z M1300.58,408.99c0,0.87,0,0.87,0,0.87
				c-2.75,0.89-4.59,1.78-6.43,1.78c-2.71-0.89-3.62-3.54-2.71-6.17v-0.89C1293.28,403.7,1300.58,407.22,1300.58,408.99
				L1300.58,408.99z M1120.72,490.06c-0.9,0.87-0.9,1.76-1.81,1.76c-3.65,0.87-8.24-2.65-9.11-5.3c0-0.87,0.87-1.76,1.81-1.76
				C1114.36,483.89,1119.82,486.53,1120.72,490.06L1120.72,490.06z M1151.79,492.7c-2.74-0.87-7.3,3.52-7.3-2.64
				c0.87-2.65,5.46-1.76,8.17-1.76c1.84,0.87,5.49,1.76,5.49,3.52c0,3.52-2.75,1.76-5.49,0.87H1151.79L1151.79,492.7z
				 M1379.05,278.56c0.93,0.87,1.81,1.76,2.75,2.63c0,0.89,0,1.76-0.94,2.65c0,0.87-0.87,0.87-1.81,1.76
				c-1.81,0.87-3.65,3.52-7.3,0.87c0,0-0.94-0.87,0-1.76C1371.75,282.09,1375.41,278.56,1379.05,278.56L1379.05,278.56z
				 M1294.15,330.56c2.74,1.76,6.43,2.63,9.14,4.41c0.9,0,0.9,2.63,0,2.63c-1.84,0.89-4.55,2.65-7.3,1.76
				c-2.71-0.87-3.65-3.52-3.65-7.05C1292.34,332.32,1293.28,331.43,1294.15,330.56L1294.15,330.56z M945.49,551.75
				c0.9-1.76,1.81-5.3,3.65-5.3c2.71-0.87,6.39,0,10.04,0c-0.9,0.89-0.9,2.65-0.9,2.65c-2.75,1.76-5.49,3.52-8.23,5.28
				c-0.9,0-1.81,0.89-2.75,1.76C946.39,555.28,946.39,554.39,945.49,551.75L945.49,551.75z M1455.72,113.77
				c0-0.89-0.91-1.76-0.91-2.65c0.91-2.63,1.84-6.16,2.71-9.7c0,0,2.75-0.87,3.68,0c2.74,1.76,4.55,3.54,7.3,6.17l-0.94,1.76
				c-4.55-0.87-7.3,1.76-10.04,4.41C1457.53,113.77,1456.66,113.77,1455.72,113.77L1455.72,113.77z M1291.44,512.97
				c1.84,0.89,2.71,1.76,2.71,2.65c1.84,4.41,3.68,3.52,7.3,1.76c3.68-1.76,2.75,1.76,3.68,3.52c0,0.89-1.84,3.52-2.74,3.52
				c-3.65-0.87-7.3-0.87-10.95-1.76c-0.9,0-2.75-2.63-2.75-3.52C1289.6,517.38,1290.53,515.62,1291.44,512.97L1291.44,512.97z
				 M1494.96,281.2c0-0.87,0-2.63,0-4.4c0.94-0.89,1.84-1.76,2.75-2.65c0.94,0,2.74,0.89,2.74,1.76c1.81,1.76,3.65,4.41,4.55,7.05
				c0.94,1.76,0.94,3.52,1.84,6.17c-2.75,0-6.39,1.76-9.14,0.89c-0.9,0-1.81-3.54-2.75-5.3
				C1494.09,283.85,1494.96,282.96,1494.96,281.2L1494.96,281.2z M2135.76,598.46c-1.84-0.89-2.75-0.89-3.68-1.76
				c0.94,0,1.84-1.78,1.84-1.78c0.9,0,2.75,0.89,3.65,0.89C2136.67,596.7,2136.67,597.57,2135.76,598.46L2135.76,598.46z
				 M1754.23,333.19c-1.84-1.76-2.75-2.63-2.75-3.52c0-0.87,1.81-1.76,2.75-2.64c0,0.87,1.81,1.76,1.81,3.52
				C1756.04,331.43,1755.1,332.32,1754.23,333.19L1754.23,333.19z M1800.77,409.86c0.91,1.78,1.81,3.54,1.81,3.54
				c-0.9,1.76-2.74,2.63-3.62,3.52c-0.93-0.89-1.84-1.76-1.84-2.65C1797.12,413.4,1798.96,412.51,1800.77,409.86L1800.77,409.86z
				 M1609.06,569.37c1.84-0.87,2.75-2.64,3.68-1.76c0.9,0,2.75,0.89,4.55,1.76c-0.94,0.89-1.81,2.65-1.81,2.65
				C1613.65,571.13,1611.8,570.26,1609.06,569.37L1609.06,569.37z M1777.93,573.78c-2.74,0.87-6.36-2.65-5.49-5.29
				c0-0.89,0.94-1.76,1.84-1.76c1.84-0.89,5.49,2.64,5.49,5.29C1778.87,572.89,1778.87,572.89,1777.93,573.78L1777.93,573.78z
				 M2153.11,614.31c-1.84-3.52-3.68-5.28-4.55-7.04c0-0.89,1.81-2.65,2.72-2.65c2.75-0.87,4.58,0.89,4.58,3.52
				C2155.85,609.9,2154.01,610.79,2153.11,614.31L2153.11,614.31z M1662.93,527.08c-0.91,0.87-1.84,1.76-1.84,1.76
				c-0.87,0-1.81-0.89-2.75-1.76c0,0,0-1.76,0.94-1.76C1660.21,525.31,1661.09,526.19,1662.93,527.08L1662.93,527.08z
				 M1729.59,600.22c0.87,0.87,0.87,0.87,0.87,0.87c0.94,0.89,0.94,2.65,0,2.65c-0.87,0-2.72,0.87-3.62,0.87l-0.94-1.76
				C1727.74,601.98,1728.65,601.1,1729.59,600.22L1729.59,600.22z M1704.91,591.4c0.9,0.89,1.84,2.65,1.84,3.52
				c-0.94,0-1.84,0.89-2.74,0.89c-0.94,0-1.81-1.76-2.74-2.65C1702.2,593.16,1703.07,592.28,1704.91,591.4L1704.91,591.4z
				 M2086.48,549.99c-1.84,0.87-2.75,1.76-3.68,1.76c-0.9,0-1.81-0.89-1.81-1.76c0-0.89,0.91-2.65,1.81-2.65
				C2083.74,547.34,2084.64,548.21,2086.48,549.99L2086.48,549.99z M2216.08,651.32c-1.84,0.89-2.75,1.76-4.58,1.76
				c-0.91,0-2.75-0.87-3.62-0.87c0.87-0.89,0.87-2.65,1.81-2.65c1.81,0,3.65,0,5.49,0.89L2216.08,651.32L2216.08,651.32z
				 M1901.17,416.03c0-0.87-0.91-1.76-1.84-2.63l0.93-0.89c1.81,0,3.62,0.89,5.46,1.76
				C1904.82,415.16,1903.01,415.16,1901.17,416.03L1901.17,416.03z M1662.93,515.62c1.84,0.87,3.65,1.76,5.46,2.63
				c0.94,0,0.94,0.89,0.94,1.78c0,0-0.94,0.87-1.81,0.87c-1.84-0.87-3.68-0.87-5.49-1.76c0,0-0.94-0.89-1.81-1.76
				C1661.09,517.38,1662.02,516.49,1662.93,515.62L1662.93,515.62z M1766.08,496.22c-0.93-0.87-2.74-2.63-4.55-3.52
				c0.9-0.87,1.81-1.76,1.81-0.87c1.81,0.87,3.65,2.64,5.49,3.52C1767.89,495.35,1766.99,495.35,1766.08,496.22L1766.08,496.22z
				 M1750.55,764.13c-1.81,0-1.81,0-2.74-0.89c-0.87,0-1.81,0-1.81-0.87l0.94-0.89c0.87-0.87,1.81-0.87,2.71,0
				c1.84,0,2.75,0,4.59,0.89C1752.39,763.24,1751.48,763.24,1750.55,764.13L1750.55,764.13z M1565.27,104.96c0,0,0-0.89,0.9-2.65
				c0,0.87,0.9,1.76,1.84,2.65c0.9,0.87,0.9,1.76,1.81,2.63c0,0.89,0,2.65-0.9,3.52c0,0-1.84,0.89-1.84,0
				c-0.9,0-1.81-0.87-1.81-1.76C1565.27,108.48,1565.27,106.72,1565.27,104.96L1565.27,104.96z M1845.49,602.86
				c-0.94-0.87-1.84-0.87-2.75-0.87c0.9-0.89,1.81-2.65,2.75-2.65c1.81,0,3.65,0,5.49,0c0.87,0,0.87,0.89,1.81,0.89
				c-0.94,0-1.81,0.87-1.81,0.87C1849.14,601.98,1847.3,601.98,1845.49,602.86L1845.49,602.86z M1769.73,601.1
				c-1.84,1.76-2.74,2.65-3.65,3.52c-0.93-0.87-1.81-1.76-2.74-3.52l1.81-1.76C1766.08,599.33,1767.89,600.22,1769.73,601.1
				L1769.73,601.1z M1620.95,589.63c0.9,1.76,1.84,4.41,2.71,7.06c0,0-0.87,0.87-1.81,0.87c-2.74,0-4.55-4.41-3.65-7.05
				C1618.2,589.63,1620.04,589.63,1620.95,589.63L1620.95,589.63z M1613.65,608.14c-1.84,0.89-3.65,1.76-5.49,2.65
				c0,0-1.84-0.89-2.71-1.76c1.81-0.89,2.71-2.65,4.55-3.52c0.9,0,1.81,0,2.75,0.87C1613.65,606.38,1613.65,606.38,1613.65,608.14
				L1613.65,608.14z M1865.58,406.33c1.81,2.65,3.62,5.3,4.55,7.06c0,0,0,1.76-0.94,1.76c-0.87,0.87-5.46-2.65-5.46-4.41
				C1863.74,409.86,1864.64,408.99,1865.58,406.33L1865.58,406.33z M1721.35,266.22c1.81,0.89,3.65,2.65,5.49,4.41
				c0,0.87,0,2.65-0.94,3.52c-0.9,0-1.81,0-2.75,0c-1.81-1.76-2.75-2.65-4.55-4.41v-1.76
				C1718.61,267.11,1719.54,267.11,1721.35,266.22L1721.35,266.22z M1568.01,608.14c0.9,0,1.81,0,3.62,0.89c0,0,0.94,0.87,0.94,1.76
				c0,0,0,1.76-0.94,1.76c-1.81,0.89-8.17,0-9.11-1.76c0-0.89,0-1.76,0.93-1.76C1565.27,608.14,1566.17,608.14,1568.01,608.14
				L1568.01,608.14z M1818.11,665.43c-4.55,0.87-6.39,2.64-8.23,2.64c-0.9,0-1.81-1.76-2.74-3.52c1.84-0.87,2.74-2.64,4.59-2.64
				C1812.62,661.91,1814.46,663.67,1818.11,665.43L1818.11,665.43z M2262.62,691.87c0-0.89-0.9-1.76-0.9-2.65
				c-0.94-2.65,0-4.41,3.65-5.28c0.9,0,5.46,4.41,4.59,5.28C2268.11,690.98,2266.27,690.98,2262.62,691.87L2262.62,691.87z
				 M1599.02,552.63c0.94,2.65,1.84,4.41,1.84,6.17c0.9,1.76,0,3.52-0.9,4.4c-1.81,1.78-5.49,0-5.49-1.76
				c0-2.64,0.94-5.29,1.84-7.92C1596.3,553.51,1597.21,553.51,1599.02,552.63L1599.02,552.63z M1770.63,561.43
				c0,0.89-0.9,0.89-1.81,0.89c-1.84,0-3.68-0.89-6.4-1.76c-0.9-0.89-1.84-1.76-2.74-2.65c0.9-1.76,1.84-3.52,3.65-3.52
				C1767.89,553.51,1769.73,555.28,1770.63,561.43L1770.63,561.43z M1730.46,558.8c0,1.76-1.81,3.52-5.46,3.52
				c-2.75,0-4.59-1.76-5.46-4.41c0-3.52,1.81-5.29,5.46-5.29C1727.74,552.63,1729.59,553.51,1730.46,558.8L1730.46,558.8z
				 M1810.81,609.03c-1.84-0.89-2.74-0.89-3.68-0.89c-2.71,0-6.36,0-6.36-3.52c0-1.76,1.81-4.4,2.74-5.29
				c2.75-1.76,6.36-3.52,10.05-0.87c2.74,2.64,1.81,6.16,0.9,8.81C1813.55,608.14,1811.71,608.14,1810.81,609.03L1810.81,609.03z"/>
			<path class="st3" d="M207.97,695.39l5.46,0.87C637.88,773.83,1068.7,812.6,1499.55,812.6c430.85,0,861.67-38.77,1287-116.33
				l5.49-0.87v39.66c-427.2,77.54-859.83,116.31-1292.49,116.31c-431.75,0-864.41-38.77-1291.58-116.31V695.39z"/>
			<path class="st3" d="M207.97,1391.01c427.17-75.78,859.83-113.68,1291.58-113.68c432.66,0,865.29,37.9,1292.49,113.68v38.77
				c-427.2-75.78-859.83-113.68-1292.49-113.68c-432.66,0-865.32,37.9-1291.58,113.68V1391.01z"/>
			<path class="st2" d="M2357.54,334.08v0.89c-8.2,16.74-27.39,42.29-59.33,63.45c7.3,8.81,21.02,6.16,26.48,2.64
				c-7.3,15.87-39.24,63.45-52.93,75.8c6.36,1.76,40.18-4.41,44.73-8.82c8.21-6.16-14.6,28.2-48.38,52.88v0.89h-0.9
				c-10.98,7.92-23.77,14.98-36.53,19.38c7.3,15.87,49.28,21.15,54.77,21.15c-2.74,5.29-5.49,10.57-9.14,15.85l0,0
				c0,0.89-0.9,1.76-0.9,1.76h-0.9c-21.9,33.5-57.52,63.46-78.51,79.32c-6.39,4.41,57.49,9.7,63.91,5.29
				c-4.58,11.46-20.09,32.61-60.26,54.64c-3.65,1.76,81.22-3.52,108.61-35.25c5.49-5.28,2.74,6.17-4.55,21.15
				c0.94-0.89,0.94-1.76,1.81-2.65c0.94,0,2.75,0.89,2.75,1.76c0.94,0.89,0.94,2.65,0,3.52c0,0.89-1.81,1.76-2.75,1.76
				c-0.87,0-1.81-1.76-2.71-2.63c-4.59,8.81-10.04,17.61-17.34,24.66c10.01,4.41,41.08-6.16,54.74-12.33v62.58l13.72-1.76
				c-0.94-1.78-1.84-2.65-1.84-2.65c0.9-1.76,1.84-2.65,2.74-4.41c0.9,0.89,2.71,1.76,1.84,1.76c0,1.76-0.94,3.52-1.84,5.3
				l23.74-2.65v-58.17c0.9,0.89,2.75,0.89,3.62,1.76l0,0c0.93-0.87,1.87-0.87,3.68-1.76c0,0.89,0.91,1.76,0,2.65l0,0
				c15.54,6.16,39.24,13.22,47.47,9.68c-18.28-18.5-31.07-57.28-22.83-47.58c28.29,31.72,112.29,37.01,108.61,35.25
				c-40.18-22.03-55.68-43.18-59.33-54.64c5.49,4.41,69.37-0.87,63.88-5.29c-17.34-13.22-42.89-34.37-64.79-59.04
				c0,0.87,0,1.76,0,2.64c0,0.89-0.91,0.89-0.91,0.89c-0.93-0.89-0.93-2.65-0.93-3.52c0,0,0.93,0,1.84-0.89
				c-10.04-11.46-19.18-24.68-25.55-37.01c5.46,0,47.44-5.29,54.77-21.15c-52.03-16.74-96.76-81.07-85.84-73.14
				c0,0.89,0.94,0.89,0.94,0.89s0-0.89,0.9-0.89l0.9,1.76c9.14,3.54,36.53,8.82,41.98,7.06c-13.66-12.35-45.6-59.93-52.93-75.8
				c5.46,3.52,19.18,6.17,26.48-2.64c-28.32-18.52-46.54-40.55-55.71-57.29c-0.87,0.89-1.81,0.89-1.81,1.76
				c-2.74-0.87-6.36-5.28-5.49-7.92c0.94,0,1.84-0.89,2.75-0.89h0.93l0,0h-0.93l0,0c-0.9,0-1.81,0-1.81,0H2357.54z M2388.6,487.41
				c0.91-0.89,1.81-0.89,2.75-1.76c0,0,0.87,0.87,0.87,1.76c-0.87,0-1.81,0.89-1.81,0.89C2389.51,488.3,2388.6,487.41,2388.6,487.41
				L2388.6,487.41z M2323.79,464.5c-1.81-0.87-1.81-1.76-2.75-1.76c0.94-0.87,0.94-1.76,1.81-1.76c0.94,0,1.84,0.89,1.84,0.89
				C2324.69,462.74,2323.79,463.63,2323.79,464.5L2323.79,464.5z M2260.78,688.35c-0.87-0.89-1.81-0.89-1.81-1.78
				c0-0.87,0.93-2.63,0.93-3.52c0.87,0.89,1.81,0.89,1.81,1.76C2261.72,685.7,2260.78,686.57,2260.78,688.35L2260.78,688.35z
				 M2359.38,717.42c-1.84-1.76-3.65-2.65-4.55-4.41l1.84-1.76c1.81,0.89,2.71,1.76,3.62,3.52
				C2360.28,714.77,2359.38,715.66,2359.38,717.42L2359.38,717.42z M2402.26,535.01c-0.87-0.89-1.81-1.78-1.81-1.78
				c0.94-1.76,2.75-3.52,3.65-4.4h0.9c0.94,0,0.94,1.76,0.94,1.76C2405.01,532.36,2403.2,533.23,2402.26,535.01L2402.26,535.01z
				 M2278.12,642.52c0,0.89-0.87,1.76-0.87,1.76c-2.75,0.89-5.49-0.87-6.43-3.52c0-0.89,0.94-1.76,0.94-1.76
				C2273.57,638.1,2278.12,640.75,2278.12,642.52L2278.12,642.52z M2408.69,632.82c-1.84,0-3.68,0-4.59-0.87
				c-0.9-0.89-1.84-1.76-1.84-3.53c0.94,0,2.74-0.89,3.68-0.89c0.9,0.89,2.75,1.76,3.62,2.65c0.94,0.87,0.94,1.76,1.84,2.63
				C2410.5,632.82,2409.56,632.82,2408.69,632.82L2408.69,632.82z M2426.03,471.55c-0.94,0.89-0.94,0.89-1.84,0.89
				c-1.84-5.28-5.46-1.76-9.14-0.89c0,0-1.81-0.87-2.74-0.87c0.93-1.76,0.93-2.65,1.84-3.52c1.84-0.89,4.59-0.89,6.39-0.89
				C2424.19,466.26,2426.03,467.15,2426.03,471.55L2426.03,471.55z M2414.15,633.71c0,0.87-0.9,2.64-0.9,3.52
				c0-0.89-0.93-1.76-0.93-2.65c0-1.76,0.93-2.64,0.93-4.4C2413.24,631.95,2414.15,632.82,2414.15,633.71L2414.15,633.71z
				 M2269.01,553.51c0,0.87,0,2.63,0.94,3.52c0,0.87,0,1.76,0,1.76c-0.94,0-1.84-0.89-2.75-0.89c0-1.76,0-2.64,0-4.4
				C2267.2,553.51,2268.11,553.51,2269.01,553.51L2269.01,553.51z M2388.6,584.35c-0.93,1.76-1.84,2.65-2.75,3.52l-1.81-1.76
				c0.87-0.87,0.87-1.76,1.81-2.63C2386.76,583.48,2387.67,584.35,2388.6,584.35L2388.6,584.35z M2332.89,649.56
				c0.94,1.76,1.84,2.65,1.84,3.52c0,0.89-1.84,1.76-1.84,2.65c-0.9-0.89-2.75-1.76-2.75-1.76
				C2331.09,652.21,2331.99,651.32,2332.89,649.56L2332.89,649.56z M2435.14,644.28c0,0.89,0.93,0.89,0.93,1.76c0,0,0,0.89,0,1.76
				c-0.93,0.89-1.87,0.89-2.75,0.89c0,0.87-1.84,0-1.84-0.89c0.9-0.87,0.9-1.76,1.84-1.76
				C2433.33,645.17,2434.2,645.17,2435.14,644.28L2435.14,644.28z M2274.5,687.46c0.9,0.89,0.9,1.76,0.9,1.76
				c-0.9,0.89-0.9,1.76-0.9,2.65c0-0.89-0.94-0.89-0.94-1.76c0-1.76-0.9-2.65-0.9-4.41c0-0.89,0.9-1.76,0.9-2.65
				c0,0.89,0.94,1.76,0.94,2.65C2275.41,686.57,2274.5,686.57,2274.5,687.46L2274.5,687.46z M2305.51,666.3
				c0.94,3.52-0.87,6.17-3.62,5.29c-0.94,0-2.75-1.76-2.75-1.76c0-1.76,0-5.29,2.75-5.29C2303.7,664.54,2304.64,666.3,2305.51,666.3
				L2305.51,666.3z"/>
			<path class="st2" d="M780.27,433.66v0.87c-5.46,13.22-20.99,32.61-45.63,49.35c5.49,6.17,16.44,4.41,20.99,1.76
				c-5.46,12.33-31.03,49.36-41.08,58.17c4.55,1.76,30.13-3.52,34.68-6.17c5.49-4.41-11.85,21.15-37.43,40.53l-0.91,0.89l0,0
				c-9.14,6.17-18.24,11.46-28.29,14.98c5.49,12.33,37.43,15.85,41.98,15.85c-1.81,4.41-4.55,8.82-7.3,12.35l0,0
				c0.94,0.87-0.93,1.76-0.93,1.76l0,0c-17.34,25.55-44.7,49.36-61.14,61.69c-4.55,3.52,44.73,7.05,49.28,3.52
				c-2.75,9.7-15.5,25.55-46.54,42.3c-2.74,1.76,62.97-2.64,83.97-26.43c4.55-5.3,2.75,4.4-2.74,15.85c0-0.87,0.94-1.76,0.94-1.76
				c0.9-0.89,2.74,0,2.74,0.89c0,0.87,0,1.76,0,2.63c-0.94,0.89-1.84,1.76-2.74,1.76c-0.94,0-0.94-0.87-1.84-1.76
				c-3.65,6.17-8.2,13.22-13.69,18.51c8.23,3.52,31.94-4.4,42.92-9.7v64.34l29.19,2.65v-66.99c0.9,0.89,1.81,0.89,2.75,1.76l0,0
				c0.9-0.87,1.81-0.87,2.75-1.76c0,0.89,0.9,1.76,0.9,2.65h-0.9c12.75,4.41,30.1,10.57,36.49,7.05
				c-13.69-14.09-23.74-44.06-17.34-36.12c21.9,23.79,87.65,28.19,84.9,26.43c-31.07-16.74-43.83-32.6-46.57-42.3
				c3.65,3.52,53.87,0,49.31-3.52c-13.72-10.57-33.81-26.44-50.22-45.83c0,0.89,0.9,1.76,0,1.76c0,0.89,0,0.89-0.93,0.89
				c0-0.89,0-1.76,0-2.65c0,0,0,0,0.93-0.87c-8.23-8.81-14.6-18.51-20.09-29.09c4.55,0,37.43-3.52,42.92-15.85
				c-40.17-13.22-74.86-62.57-66.66-56.4c0,0,0.91,0,0.91,0.89c0-0.89,0-0.89,0-0.89l0.93,0.89c7.3,3.52,28.29,7.05,32.84,5.28
				c-10.01-8.81-35.59-45.83-41.08-58.17c4.55,2.65,14.6,4.41,21.02-1.76c-21.93-14.98-36.53-31.72-43.83-44.94
				c0,0.87-0.9,0.87-0.9,1.76c-1.84-0.89-4.59-4.41-4.59-6.17c0.91,0,1.84-0.87,2.75-0.87l0,0l0,0l0,0h-0.9h-0.94H780.27z
				 M804.01,551.75c0.94,0,1.81,0,2.74,0c0,0,0,0,0.9,0c-0.9,0.87-1.84,0.87-1.84,1.76C804.94,553.51,804.94,552.63,804.01,551.75
				L804.01,551.75z M753.79,535.01c-0.87-0.89-0.87-1.78-1.81-1.78c0.93-0.87,0.93-0.87,1.81-1.76l1.84,0.89
				C754.72,533.23,754.72,534.12,753.79,535.01L753.79,535.01z M705.44,707.73c-0.94,0-0.94-0.87-0.94-0.87c0-0.89,0-1.76,0.94-3.52
				c0,0.87,0.9,0.87,0.9,1.76C706.34,705.96,706.34,706.85,705.44,707.73L705.44,707.73z M781.17,730.64
				c-0.91-1.76-1.81-2.65-2.74-3.52l1.84-1.76c0.91,0.87,1.84,1.76,2.75,2.64C783.01,727.99,782.11,729.75,781.17,730.64
				L781.17,730.64z M814.95,588.76c-0.9,0-0.9-0.89-0.9-0.89c0.9-0.87,1.81-2.63,2.74-3.52h0.9c0,0,0.91,0.89,0,0.89
				C816.79,587,815.86,587.87,814.95,588.76L814.95,588.76z M777.56,779.11c0-1.76-0.94-1.76-0.94-2.65c0-0.87,0.94-1.76,1.81-2.63
				c0.93,0,1.84,0.87,1.84,0.87C779.36,776.46,778.43,777.35,777.56,779.11L777.56,779.11z M719.1,672.48
				c0,0.89-0.87,0.89-0.87,1.76c-1.87,0-4.59-0.87-4.59-3.52c0,0,0-0.89,0.91-0.89C715.48,668.95,719.1,671.59,719.1,672.48
				L719.1,672.48z M819.54,665.43c-0.94-0.89-2.75-0.89-2.75-0.89c-0.93-0.87-0.93-1.76-1.84-2.64c0.91,0,1.84-0.89,2.75-0.89
				c0.91,0,1.84,0.89,2.75,1.76c0.91,0.89,0.91,0.89,1.84,1.76C821.35,664.54,820.44,665.43,819.54,665.43L819.54,665.43z
				 M833.2,540.3c0,0-0.9,0-0.9,0.87c-1.84-4.4-4.55-1.76-7.3-0.87c0,0-0.9-0.89-1.84-0.89c0-0.87,0.93-2.63,0.93-2.63
				c1.81-0.89,3.65-0.89,5.49-0.89C832.3,535.88,833.2,536.77,833.2,540.3L833.2,540.3z M825,665.43c-0.9,0.87-0.9,1.76-1.84,2.64
				c0-0.87,0-0.87,0-1.76c0-0.87,0-1.76,0-3.52C824.09,663.67,824.09,664.54,825,665.43L825,665.43z M711.8,603.75
				c0,0.87,0.93,1.76,0.93,2.63c0,0.89,0,0.89,0,1.76c-0.93-0.87-1.84-0.87-1.84-1.76c0-0.87,0-1.76,0-2.63
				C710.9,603.75,710.9,603.75,711.8,603.75L711.8,603.75z M804.94,627.53c-0.94,0.89-1.84,1.76-1.84,2.65
				c-0.9,0-1.84-0.89-1.84-0.89c0-0.87,0.94-1.76,0.94-2.64C803.1,626.66,804.01,627.53,804.94,627.53L804.94,627.53z
				 M761.09,677.76c0.94,1.76,1.84,1.76,1.84,2.65c0,0.87-0.9,1.76-1.84,1.76c-0.87,0-1.81-0.89-1.81-0.89
				C760.21,680.41,760.21,679.52,761.09,677.76L761.09,677.76z M840.5,674.24c0,0,0.94,0,0.94,0.89V676
				c-0.94,0.89-1.81,1.76-1.81,1.76c-0.93,0-1.84-0.87-1.84-0.87c0-0.89,0.9-1.76,0.9-1.76
				C839.63,674.24,839.63,674.24,840.5,674.24L840.5,674.24z M716.36,706.85c0,0.87,0,1.76,0,1.76c0,0.87,0,1.76,0,1.76l-0.87-0.89
				c0-0.87,0-2.63,0-3.52c-0.93-0.87,0-0.87,0-1.76c0,0,0.87,0.89,0.87,1.76V706.85L716.36,706.85z M740.13,690.98
				c0.9,2.65-0.94,4.41-2.75,4.41c-0.94,0-1.81-1.76-1.81-1.76c0-1.76,0-3.52,1.81-3.52C738.28,690.11,740.13,690.98,740.13,690.98
				L740.13,690.98z"/>
			<path class="st2" d="M628.77,312.92v0.89c-7.3,15.86-25.58,40.53-55.71,60.8c7.3,7.93,19.18,4.41,25.58,1.76
				c-7.3,14.98-38.37,59.93-50.22,71.38c5.49,1.76,37.43-4.4,41.98-7.93c7.3-5.28-13.66,26.44-45.63,49.35l-0.9,0.89l0,0
				c-10.95,7.92-21.9,14.09-33.78,18.51c6.4,14.09,45.63,19.38,51.12,19.38c-2.75,5.29-5.49,10.59-9.11,14.98l0,0
				c0,0.89-0.93,2.65-0.93,2.65l0,0c-20.99,30.84-54.77,59.04-74.86,74.02c-5.46,4.41,54.77,8.82,60.26,5.29
				c-3.65,10.58-19.15,29.96-56.58,51.12c-3.68,1.76,76.67-3.52,102.22-32.6c5.46-6.17,2.75,5.28-3.65,18.5c0,0,0.9-0.89,1.81-1.76
				c0,0,1.84,0.87,2.74,1.76c0,0.87,0,2.64-0.91,3.52c0,0.87-1.84,1.76-2.75,0.87c-0.9,0-1.84-0.87-2.71-1.76
				c-3.68,7.94-9.14,16.74-15.53,22.92c9.11,4.41,38.33-6.17,51.09-11.46l0.94,102.22c11.85,1.78,23.74,2.65,35.59,4.41V676
				c0.91,0.89,1.84,0.89,3.65,1.76l0,0c0.94-0.87,1.84-0.87,2.75-1.76c0,0.89,0.93,1.76,0.93,2.65h-0.93
				c14.6,6.16,36.49,12.33,44.73,8.81c-17.34-16.74-29.2-53.75-20.99-44.06c25.55,29.07,105.9,34.36,102.22,32.6
				c-37.43-21.16-52.93-40.53-56.58-51.12c5.49,3.54,65.72-0.87,60.26-5.29c-16.44-12.33-40.18-32.6-60.26-55.51
				c0,0.89,0,1.76,0,2.65c0,0-0.91,0.87-1.81,0.87c0-0.87,0-2.64,0-3.53c0,0,0-0.89,0.9-0.89c-9.14-11.44-17.34-22.9-23.74-35.25
				c5.49,0,44.73-5.29,51.12-19.38c-48.38-15.87-90.36-76.67-80.32-68.75c0,0,0.9,0,0.9,0.89c0-0.89,0.9-0.89,0.9-0.89l0.94,0.89
				c9.11,3.52,34.68,8.81,39.24,7.05c-11.85-11.46-42.92-56.4-50.22-71.38c6.39,2.65,18.28,6.17,25.58-1.76
				c-26.48-18.5-43.83-38.77-52.96-54.63c0,0.87-0.9,0.87-0.9,1.76c-2.75-0.89-6.39-5.3-5.46-7.06c0.87-0.87,1.81-1.76,2.71-0.87
				h0.9v-0.89h-0.9l0,0c-0.9,0-1.84,0-1.84,0H628.77z M657.97,457.45c0.9,0,1.81-0.89,1.81-0.89c0.94,0,0.94,0.89,1.84,0.89
				c-0.9,0-1.84,0.89-2.75,0.89C658.87,458.34,658.87,458.34,657.97,457.45L657.97,457.45z M596.8,436.3
				c-0.9-0.87-1.84-1.76-2.71-1.76c0.87-0.87,1.81-1.76,2.71-1.76l0.9,0.89C597.7,434.54,597.7,435.43,596.8,436.3L596.8,436.3z
				 M537.47,646.93c-0.9-0.89-1.84-0.89-1.84-1.76c0.94-0.89,0.94-1.76,1.84-3.54c0,0.89,1.84,0.89,1.84,1.78
				C538.38,644.28,538.38,646.04,537.47,646.93L537.47,646.93z M630.58,674.24c-1.81-1.76-2.74-2.65-4.55-4.41l1.81-1.76
				c1.81,0.89,2.74,2.65,3.65,3.52C631.48,671.59,630.58,672.48,630.58,674.24L630.58,674.24z M670.76,502.4
				c-0.94-0.89-1.84-1.76-1.84-1.76c1.84-0.89,2.75-2.65,3.65-4.41c0,0,0.94,0,0.94,0.89c0.87,0,0.87,0.87,0.87,0.87
				C673.5,499.75,671.66,500.64,670.76,502.4L670.76,502.4z M626.03,733.28c-0.94-1.76-1.84-2.64-1.84-2.64
				c0.9-1.76,1.84-2.65,2.75-3.52l1.84,0.87C627.84,729.75,626.93,731.52,626.03,733.28L626.03,733.28z M553.91,603.75
				c0,0.87,0,1.76-0.94,1.76c-2.71,0.87-5.46-0.89-5.46-3.52c0-0.89,0-1.76,0.91-1.76C550.26,599.33,553.91,601.98,553.91,603.75
				L553.91,603.75z M676.21,594.92c-0.9,0-2.71,0-3.65-0.87c-0.9-0.89-0.9-1.76-1.81-3.52c0.9,0,2.75-0.89,3.62-0.89
				c0.93,0.89,2.75,1.76,3.68,2.65c0,0.87,0.9,0.87,0.9,1.76C678.05,594.92,677.12,594.92,676.21,594.92L676.21,594.92z
				 M692.65,443.36c0,0-0.94,0-0.94,0.87c-1.81-5.28-5.46-2.65-8.17-1.76c-0.94,0.89-1.87,0-2.75-0.89c0-0.87,0.87-2.64,1.81-2.64
				c1.81-0.89,3.65-0.89,5.49-0.89C691.72,438.06,692.65,438.95,692.65,443.36L692.65,443.36z M682.61,594.92
				c-0.93,1.78-0.93,2.65-1.81,3.54c0-0.89,0-1.76,0-2.65c0-0.89,0-1.76,0-3.52C681.67,593.16,681.67,594.05,682.61,594.92
				L682.61,594.92z M544.77,520.03c0.91,0.87,0.91,2.63,0.91,3.52c0.94,0.87,0,0.87,0,1.76c0-0.89-1.81-0.89-1.81-1.76
				c0-0.89,0-1.76,0-3.52H544.77L544.77,520.03z M657.97,549.1c-0.94,1.76-0.94,2.65-1.81,3.52c-0.93,0-2.74-1.76-1.84-1.76
				c0-0.87,0.91-1.76,1.84-2.65C656.16,548.21,657.03,548.21,657.97,549.1L657.97,549.1z M605.94,610.79
				c0.9,0.89,1.81,1.76,1.81,2.65c-0.91,0.87-1.81,1.76-2.75,2.63c-0.87-0.87-1.81-1.76-1.81-1.76
				C603.19,613.44,604.13,612.55,605.94,610.79L605.94,610.79z M701.76,605.51c0,0.87,0.94,0.87,0.94,0.87c0,0.89,0,1.76,0,1.76
				c-0.94,0.89-1.81,1.76-2.74,1.76l-0.94-0.87c0-0.89,0-1.76,0.94-2.65C699.95,606.38,700.89,606.38,701.76,605.51L701.76,605.51z
				 M551.17,646.04c0,0.89,0,1.76,0,1.76c0,0.89,0,1.76-0.91,2.65c0-0.89,0-1.76,0-1.76c-0.91-1.76-0.91-2.65-0.91-3.52
				c0-0.89,0-1.76,0-2.65c0.91,0,1.81,0.89,1.81,1.76C551.17,645.17,551.17,645.17,551.17,646.04L551.17,646.04z M580.36,626.66
				c0,3.52-1.81,5.29-4.55,4.4c-0.91,0-1.81-0.87-1.81-1.76c0-1.76,0-4.41,2.75-4.41C577.62,624.88,579.46,625.77,580.36,626.66
				L580.36,626.66z"/>
		</g>
		<g>
			<g>
				<path d="M1536.62,1045.84l48.28-0.59v6.15c-6.02,2.01-11.36,5.52-16.02,10.5c-4.44,4.79-9.1,14.09-13.99,27.88
					c-4.06,11.28-7.78,19.46-11.17,24.56c8.04,13.67,14.36,22.37,18.95,26.04c4.66,3.77,9.55,5.75,14.66,5.93
					c7.07,0.24,12.52-3.54,16.35-11.38l5.19,0.15c-1.58,7.3-4.96,13.14-10.15,17.52c-5.11,4.26-11.05,6.25-17.82,5.98
					c-14.66-0.59-27.56-9.67-38.69-27.11c-13.16,16.57-27.15,24.48-41.96,23.88c-5.34-0.13-10.6-1.44-15.79-3.93
					c-5.19-2.48-9.81-5.87-13.87-10.17c-4.06-4.29-7.33-9.33-9.81-15.13c-2.48-5.78-3.65-12.09-3.5-18.94
					c0-10.43,2.56-19.22,7.67-26.39c5.11-7.12,15-16.22,29.66-27.41c-8.8-13.72-13.2-26.11-13.2-37.25c0-8.7,3.01-16.62,9.02-23.78
					c5.94-7.2,13.5-11.02,22.67-11.42c8.2-0.36,15.53,1.96,22,6.97c6.54,5.13,9.81,11.97,9.81,20.5c0,13.41-10.83,26.61-32.48,39.42
					c6.77,10.33,13.29,20.51,19.57,30.53c6.28,10.09,12.39,20.1,18.33,30.03c4.29-6.83,7.67-14.01,10.15-21.53
					c2.48-7.44,3.72-13.33,3.72-17.63c0-10.1-5.87-15.89-17.6-17.36V1045.84z M1488.01,1058.57c-7.82,5.57-13.87,11.93-18.16,19.11
					c-4.29,7.23-6.43,14.16-6.43,20.8c0,10.43,3.72,20.32,11.17,29.71c7.44,9.46,15.86,14.37,25.26,14.69
					c10.38,0.35,20.04-5.24,28.99-16.86c-7.97-14.13-15.34-26.78-22.11-38C1499.96,1076.89,1493.72,1067.07,1488.01,1058.57z
					 M1499.29,1042.97c15.04-10.3,22.56-21.38,22.56-33.15c0-3.46-0.43-6.62-1.3-9.49c-0.86-2.87-2.1-5.31-3.72-7.32
					c-1.62-2.01-3.55-3.53-5.81-4.56c-2.26-1.03-4.74-1.49-7.44-1.38c-5.49,0.22-9.85,2.45-13.08,6.67
					c-3.23,4.12-4.85,9.24-4.85,15.36C1485.64,1017.43,1490.19,1028.69,1499.29,1042.97z"/>
				<g>
					<g>
						<path d="M1781.2,1087.67c32.36,0.48,64.73,0.96,97.09,1.46c-0.03,3.95-0.07,7.91-0.12,11.86
							c-10.73-0.25-18.03,1.15-21.89,4.21c-3.86,3.05-6.46,8.23-7.82,15.5c-1.38,7.28-2.3,24.99-3.36,53.07
							c-0.44,11.55-0.96,23.09-1.54,34.61c-2.63-0.91-5.01-1.49-7.12-1.71c-8.56-0.89-19.96,1.66-34.27,7.42
							c-19.48,7.72-37.36,10.39-53.49,8.44c-32.42-3.91-58.16-20.86-77.94-49.65c-19.83-28.35-28.98-61.96-28.85-102.19
							c0.13-39.83,8.99-75.07,27.68-107.15c18.63-32.55,45.06-51.68,80.27-56.15c30.24-3.87,56.44,8.17,77.61,37.69
							c3.17-11.43,4.92-23.66,5.19-36.62c2.67-0.33,5.34-0.65,8-0.98c2.02,36.16,3.34,72.45,3.96,108.82
							c-2.66,0.1-5.31,0.21-7.97,0.32c-3.8-33.2-13.6-58.8-28.89-76.49c-15.3-17.46-33.43-24.64-53.98-22.19
							c-21.26,2.52-38.98,15.05-53.57,36.93c-14.65,21.66-20.55,57.59-20.46,108.68c0.01,50.95,5.68,87.36,19.73,110.05
							c13.98,22.93,32.04,36,54.63,38.54c11.56,1.3,22.28-0.71,32.1-6.18c9.82-5.54,16.68-12.91,20.56-22.09
							c3.88-9.2,6.1-21.12,6.56-35.7c0.54-17.08-0.05-28.54-1.54-34.31c-1.5-5.77-3.91-9.68-7.2-11.7
							c-3.29-2.03-9.37-3.15-18.22-3.35c-1.77-0.04-3.54-0.08-5.31-0.12C1781.13,1095.02,1781.17,1091.34,1781.2,1087.67z"/>
						<path d="M2062.42,868.91c25.2-3.53,50.39-7.1,75.59-10.69c0.14,4.55,0.28,9.1,0.42,13.66c-9.97,2.52-17.32,7.48-22.07,14.84
							c-4.75,7.34-7.56,15.21-8.46,23.68c-0.9,8.47-1.04,24.71-0.6,48.78c0.78,43.79,1.06,87.63,0.87,131.48
							c-0.16,33.63-1.28,58.56-3.05,74.76c-1.78,16.17-6.44,31.79-14.01,46.65c-7.57,14.78-18.04,25.9-31.36,33.32
							c-13.32,7.34-28.53,9.77-45.54,7.53c-20.14-2.63-36.94-10.33-50.43-22.79c-13.5-12.33-22.87-27.09-28.24-44.37
							c-5.38-17.21-7.68-39.72-7.26-67.76c0.23-11.88,0.41-23.77,0.52-35.66c0.18-36.11-0.19-72.21-1.1-108.26
							c-0.71-27.67-1.98-45.41-3.35-53.29c-1.38-7.88-3.86-13.13-7.38-15.77c-3.53-2.63-11.02-3.22-22.47-1.81
							c-1.72,0.21-3.45,0.42-5.17,0.63c-0.19-3.81-0.39-7.61-0.59-11.42c34.43-4.55,68.86-9.15,103.29-13.82
							c0.18,4.11,0.35,8.21,0.52,12.32c-1.5,0.19-3,0.38-4.5,0.57c-11.12,1.42-18.34,3.79-21.66,7.11
							c-3.33,3.31-5.4,8.96-6.27,16.95c-0.88,7.98-0.72,26.72,0,56.25c0.89,37.35,1.24,74.76,1.05,112.17
							c-0.21,38.88,0.25,66.51,2.11,82.96c1.84,16.47,7.77,31.3,17.88,44.66c10.1,13.47,23.91,21.35,41.47,23.43
							c13.78,1.63,26.47-1.16,38.01-8.61c11.54-7.51,20.24-17.67,26.04-30.47c5.8-12.84,9.43-26.35,10.87-40.46
							c1.44-14.11,2.37-36.45,2.5-67c0.19-44.66-0.14-89.33-0.98-133.93c-0.42-22.19-1.56-37.65-3.24-46.34
							c-1.68-8.67-5.01-15.32-9.94-19.89c-4.94-4.56-12.61-6.71-22.98-6.48C2062.74,877.55,2062.58,873.23,2062.42,868.91z"/>
						<path d="M2154.7,873.47c-0.13-4.61-0.26-9.21-0.4-13.81c34.48-4.9,68.96-9.86,103.43-14.87c0.11,4.93,0.22,9.87,0.33,14.81
							c-1.61,0.22-3.22,0.44-4.83,0.66c-11.12,1.51-18.36,4.25-21.72,8.19c-3.37,3.92-5.53,10.69-6.5,20.29
							c-0.98,9.58-1.09,32.11-0.63,67.63c0.88,69.91,0.9,139.9,0.06,209.82c-0.41,33.64-0.43,55.67,0.2,66.15
							c0.62,10.49,2.68,18.47,6.18,23.98c3.49,5.51,10.36,8.96,20.58,10.28c2.22,0.29,4.45,0.58,6.67,0.87
							c-0.11,4.94-0.21,9.87-0.33,14.81c-34.48-4.81-68.95-9.56-103.43-14.25c0.14-4.6,0.27-9.21,0.4-13.81
							c2.22,0.28,4.45,0.56,6.67,0.84c9.67,1.22,16.42-0.15,20.26-4.18c3.83-4.03,6.37-10.77,7.57-20.2
							c1.2-9.43,2.2-31.62,2.66-66.59c0.89-68.42,0.87-136.91-0.06-205.32c-0.46-33.31-1.44-54.71-2.65-64.25
							c-1.21-9.52-3.6-15.9-7.14-19.13c-3.54-3.22-11.03-4.06-22.48-2.54C2157.92,873.04,2156.31,873.26,2154.7,873.47z"/>
						<path d="M2274.54,848.19c12.37-2.98,24.75-5.98,37.12-9.02c30.97-7.75,51.85-12.54,62.64-14.18
							c33.59-5.18,59.95,1.67,78.96,21.37c19,19.95,33.2,49.21,42.53,87.7c9.33,38.71,14.02,84.35,14.01,136.27
							c-0.01,37.56-2.58,71.81-7.69,102.51c-5.11,30.61-12.11,55.56-20.98,74.83c-8.86,19.15-19.12,33.09-30.73,41.86
							c-11.61,8.71-22.62,13.48-33,14.46c-10.37,0.96-24.97,0.04-43.76-2.73c-33.42-4.89-66.85-9.73-100.27-14.52
							c0.11-4.99,0.22-9.97,0.32-14.96c3.11,0.41,6.22,0.83,9.34,1.24c9.67,1.29,16.41-0.23,20.23-4.61
							c3.81-4.39,6.33-11.69,7.55-21.91c1.21-10.22,2.13-34.26,2.5-72.13c0.69-72.88,0.71-145.81,0.03-218.69
							c-0.34-36.09-1.23-59.35-2.44-69.79c-1.22-10.42-3.56-17.36-7.02-20.79c-3.46-3.41-10.91-4.36-22.35-2.82
							c-2.22,0.3-4.44,0.59-6.67,0.89C2274.75,858.17,2274.65,853.19,2274.54,848.19z M2344.42,847.64
							c1.69,102.92,2.17,206.07,1.44,309.17c-0.33,45.72-0.33,75.22,0.32,88.49c0.65,13.28,3,22.88,7.09,28.77
							c4.08,5.92,12.85,9.82,26.3,11.66c19.67,2.7,35.93-0.77,48.72-10.72c12.79-10.03,23.61-31.91,32.32-65.91
							c8.71-34.2,13.15-78.79,13.18-133.28c0.02-42.4-2.53-80.18-7.6-113.04c-5.08-32.75-12.34-58.88-21.73-78.34
							c-9.39-19.34-19.77-31.78-31.08-37.49c-11.31-5.67-25.76-7.17-43.32-4.66C2361.61,843.5,2353.07,845.28,2344.42,847.64z"/>
						<path d="M2721.21,1171.69c2.66,0.16,5.31,0.31,7.97,0.47c-1.61,60.34-3.22,120.54-4.84,180.61
							c-62.45-10.02-124.9-19.87-187.34-29.53c0.05-5.89,0.09-11.78,0.13-17.66c1.56,0.22,3.11,0.45,4.67,0.67
							c11.22,1.6,18.5-0.85,21.82-7.42c3.32-6.58,5.45-15.24,6.39-25.97c0.94-10.73,1.53-38.33,1.66-82.78
							c0.26-86.95,0.26-173.93-0.02-260.88c-0.13-40.52-0.74-67.14-1.74-79.81c-1.01-12.67-3.23-21.3-6.64-25.88
							c-3.42-4.57-10.58-6.03-21.47-4.41c-0.04-5.9-0.09-11.81-0.13-17.71c53.88-8.66,107.77-17.46,161.65-26.38
							c1.83,47.45,3.63,95.02,5.42,142.71c-2.6,0.22-5.21,0.44-7.81,0.66c-3.57-39.68-7.95-67.49-13.13-83.48
							c-5.18-15.94-11.34-25.47-18.46-28.7c-7.12-3.23-18.57-3.58-34.36-1.16c-10.45,1.6-20.89,3.19-31.34,4.77
							c0.35,75.8,0.54,151.63,0.57,227.48c7.97-0.14,15.93-0.29,23.9-0.43c10.95-0.18,18.61-2.65,22.98-7.4
							c4.37-4.76,7.24-11.92,8.62-21.46c1.37-9.55,2.06-28.12,2.03-55.7c2.6-0.17,5.2-0.35,7.8-0.52
							c0.06,64.25,0.06,128.51,0.02,192.76c-2.6-0.12-5.2-0.23-7.8-0.35c0.02-31.16-1.03-52.06-3.12-62.68
							c-2.1-10.6-5.17-17.46-9.21-20.6c-4.04-3.12-10.87-4.65-20.49-4.59c-8.24,0.05-16.48,0.11-24.73,0.16
							c0,42.79-0.04,85.58-0.14,128.36c-0.15,64.23,1.4,102.2,4.8,114.03c3.39,11.82,12.65,18.89,27.77,21.11
							c5.61,0.83,11.23,1.65,16.84,2.48c11.89,1.77,21.68-0.59,29.36-7.16c7.68-6.59,15-21.45,21.95-44.77
							C2711.75,1247.14,2717.22,1214.2,2721.21,1171.69z"/>
					</g>
				</g>
			</g>
		</g>
		<g>
			<g>
				<path d="M374.52,1076.14v152.27c0,25.86,2.29,43.39,6.88,52.55c4.58,9.13,14.45,12.83,29.59,11.14v44.58l-147.32,19.46v-47.55
					c14.86-1.66,24.76-7.5,29.69-17.49c4.93-9.95,7.4-28.82,7.4-56.65V896.29c0-26.98-2.33-45.59-6.98-55.85
					c-4.66-10.29-14.69-16.18-30.11-17.63v-47.55l147.32,16.84v44.58c-14.73-1.39-24.48,2.36-29.28,11.28
					c-4.79,8.96-7.19,26.66-7.19,53.05v124.1l116.06,1.01V908.43c0-24.26-2.26-41.23-6.77-50.92c-4.52-9.74-14.21-15.32-29.07-16.72
					v-43.7l146.9,16.79v40.73c-15-1.41-24.97,1.74-29.9,9.48c-4.93,7.78-7.4,24.14-7.4,49.06v299.75c0,24.17,2.36,40.31,7.08,48.4
					c4.72,8.05,14.79,11.2,30.21,9.47v40.73l-146.9,19.4v-43.7c14.59-1.63,24.2-7.25,28.86-16.83c4.65-9.53,6.98-26.68,6.98-51.45
					v-144.41L374.52,1076.14z"/>
				<path d="M623.31,856.66v-40.3l149.4,17.07v37.28l-4.38-0.41c-14.03-1.32-23.17,2.08-27.4,10.23c-4.24,8.19-6.36,22.7-6.36,43.5
					v274.94c0,21.26,2.19,35.84,6.56,43.71c4.38,7.84,13.44,10.97,27.19,9.43l4.38-0.49v37.28l-149.4,19.73v-40.3
					c15-1.68,24.97-6.74,29.9-15.15c4.93-8.37,7.4-24.41,7.4-48.17V919.31c0-23.03-2.33-38.85-6.98-47.46
					C648.97,863.2,638.87,858.12,623.31,856.66z"/>
				<path d="M906.49,1104.23v80.7c0,19.53,2.19,32.81,6.56,39.82c4.38,6.97,13.86,9.62,28.44,7.99v33.88l-147.32,19.46v-36.85
					l4.38-0.49c14.17-1.59,23.37-6.7,27.61-15.32c4.24-8.58,6.36-22.71,6.36-42.44V930.3c0-20.15-2.19-34.36-6.56-42.67
					c-4.38-8.34-13.51-13.18-27.4-14.49l-4.38-0.41v-36.85l150.65,17.22v33.81l-4.58-0.43c-14.03-1.32-23.17,1.69-27.4,9.06
					c-4.24,7.41-6.36,20.59-6.36,39.48v117.78l76.47-100.98c13.34-16.56,20-30.23,20-41.21c0-12.15-8.41-19.02-25.21-20.6v-33.15
					l125.02,14.29v30.63c-11.39-1.07-23.34,1.73-35.84,8.49c-12.5,6.89-30.21,24.16-53.13,52.36l-25.63,32.52l77.72,158.94
					c13.06,25.24,23.86,41.41,32.4,48.78c8.54,7.28,19.97,10.08,34.28,8.48v30.03l-162.32,21.44v-33.3
					c21.11-2.36,31.67-9.53,31.67-21.49c0-5.1-4.31-16.09-12.92-33.1l-53.76-110.91L906.49,1104.23z"/>
				<path d="M1232.38,1064.66v84.55c0,16.15,0.76,26.64,2.29,31.45c1.53,4.8,5.63,8.48,12.29,11.03c6.67,2.52,16.81,3.01,30.42,1.51
					c18.47-2.04,32.05-6.16,40.74-12.31c8.68-6.08,16.46-15.9,23.34-29.41c6.88-13.37,11.84-27.33,14.9-41.93l23.34-1.2
					l-1.88,100.65l-258.38,34.12v-30.29l5.21-0.58c14.03-1.57,23.16-5.94,27.4-13.08c4.24-7.1,6.36-18.7,6.36-34.83V950.62
					c0-16.48-2.19-28.14-6.56-35c-4.38-6.9-13.44-11.02-27.19-12.31l-5.21-0.49v-29.75l240.67,27.5l4.17,80.65l-23.34-1.18
					c-4.17-14.53-8.82-26.25-13.96-35.16c-5.14-8.97-10.31-14.94-15.52-17.86c-5.21-2.94-14-4.99-26.36-6.13l-52.72-4.89v118.11
					l26.25,0.2c12.5,0.1,20.8-2.6,24.9-8.07c4.1-5.43,6.42-16.2,6.98-32.31l23.55,0.9v109.27l-23.55,1.07
					c0.14-2.1,0.21-3.64,0.21-4.6c0-9.35-1.7-17.76-5.11-25.27c-3.41-7.54-12.12-11.23-26.15-11.03L1232.38,1064.66z"/>
			</g>
		</g>
	</g>
</g>
</svg>
